<?xml version="1.0" encoding="UTF-8" standalone="no"?>
<!--

    Diary - Personal diary for Android
    Copyright © 2012  Josep Portella Florit <hola@josep-portella.com>

    This program is free software: you can redistribute it and/or modify
    it under the terms of the GNU General Public License as published by
    the Free Software Foundation, either version 3 of the License, or
    (at your option) any later version.

    This program is distributed in the hope that it will be useful,
    but WITHOUT ANY WARRANTY; without even the implied warranty of
    MERCHANTABILITY or FITNESS FOR A PARTICULAR PURPOSE.  See the
    GNU General Public License for more details.

    You should have received a copy of the GNU General Public License
    along with this program.  If not, see <http://www.gnu.org/licenses/>.

  -->
<svg
   xmlns:dc="http://purl.org/dc/elements/1.1/"
   xmlns:cc="http://creativecommons.org/ns#"
   xmlns:rdf="http://www.w3.org/1999/02/22-rdf-syntax-ns#"
   xmlns:svg="http://www.w3.org/2000/svg"
   xmlns="http://www.w3.org/2000/svg"
   xmlns:xlink="http://www.w3.org/1999/xlink"
   xmlns:sodipodi="http://sodipodi.sourceforge.net/DTD/sodipodi-0.dtd"
   xmlns:inkscape="http://www.inkscape.org/namespaces/inkscape"
   width="512"
   height="512"
   id="svg2"
   version="1.1"
   inkscape:version="0.48.2 r9819"
   sodipodi:docname="icon.svg"
   inkscape:export-xdpi="16.875"
   inkscape:export-ydpi="16.875">
  <defs
     id="defs4">
    <linearGradient
       id="linearGradient3793">
      <stop
         style="stop-color:#ee7d8a;stop-opacity:1;"
         offset="0"
         id="stop3795" />
      <stop
         style="stop-color:#e53535;stop-opacity:1;"
         offset="1"
         id="stop3797" />
    </linearGradient>
    <radialGradient
       inkscape:collect="always"
       xlink:href="#linearGradient3793"
       id="radialGradient3799"
       cx="-2.3528206"
       cy="163.16031"
       fx="-2.3528206"
       fy="163.16031"
       r="52.285157"
       gradientTransform="matrix(1.6564976,-0.00598333,0.00346615,0.95960965,0.81056471,8.3230594)"
       gradientUnits="userSpaceOnUse" />
    <radialGradient
       inkscape:collect="always"
       xlink:href="#linearGradient3793"
       id="radialGradient3801"
       gradientUnits="userSpaceOnUse"
       gradientTransform="matrix(1.6562492,0.02930301,-0.02846477,1.6088718,6.0198396,-97.527725)"
       cx="-2.3528206"
       cy="163.16031"
       fx="-2.3528206"
       fy="163.16031"
       r="52.285157" />
    <radialGradient
       inkscape:collect="always"
       xlink:href="#linearGradient3793-3"
       id="radialGradient3801-1"
       gradientUnits="userSpaceOnUse"
       gradientTransform="matrix(1.6562492,0.02930301,-0.02846477,1.6088718,6.0198396,-97.527725)"
       cx="-2.3528206"
       cy="163.16031"
       fx="-2.3528206"
       fy="163.16031"
       r="52.285156" />
    <linearGradient
       id="linearGradient3793-3">
      <stop
         style="stop-color:#ed6a79;stop-opacity:1;"
         offset="0"
         id="stop3795-9" />
      <stop
         style="stop-color:#e53535;stop-opacity:1;"
         offset="1"
         id="stop3797-7" />
    </linearGradient>
    <filter
       inkscape:collect="always"
       id="filter4384">
      <feGaussianBlur
         inkscape:collect="always"
         stdDeviation="13.951227"
         id="feGaussianBlur4386" />
    </filter>
    <linearGradient
       id="linearGradient3793-9">
      <stop
         style="stop-color:#ed6a79;stop-opacity:1;"
         offset="0"
         id="stop3795-1" />
      <stop
         style="stop-color:#e53535;stop-opacity:1;"
         offset="1"
         id="stop3797-3" />
    </linearGradient>
    <radialGradient
       inkscape:collect="always"
       xlink:href="#linearGradient3793-9"
       id="radialGradient3801-5"
       gradientUnits="userSpaceOnUse"
       gradientTransform="matrix(1.6562492,0.02930301,-0.02846477,1.6088718,6.0198396,-97.527725)"
       cx="-2.3528206"
       cy="163.16031"
       fx="-2.3528206"
       fy="163.16031"
       r="52.285156" />
    <linearGradient
       id="linearGradient4403">
      <stop
         style="stop-color:#ed6a79;stop-opacity:1;"
         offset="0"
         id="stop4405" />
      <stop
         style="stop-color:#e53535;stop-opacity:1;"
         offset="1"
         id="stop4407" />
    </linearGradient>
  </defs>
  <sodipodi:namedview
     id="base"
     pagecolor="#ffffff"
     bordercolor="#666666"
     borderopacity="1.0"
     inkscape:pageopacity="0.0"
     inkscape:pageshadow="2"
     inkscape:zoom="0.1767767"
     inkscape:cx="233.58955"
     inkscape:cy="254.90881"
     inkscape:document-units="px"
     inkscape:current-layer="capa1"
     showgrid="false"
     showguides="true"
     inkscape:guide-bbox="true"
     inkscape:window-width="867"
     inkscape:window-height="720"
     inkscape:window-x="128"
     inkscape:window-y="95"
     inkscape:window-maximized="0" />
  <metadata
     id="metadata7">
    <rdf:RDF>
      <cc:Work
         rdf:about="">
        <dc:format>image/svg+xml</dc:format>
        <dc:type
           rdf:resource="http://purl.org/dc/dcmitype/StillImage" />
        <dc:title></dc:title>
      </cc:Work>
    </rdf:RDF>
  </metadata>
  <g
     inkscape:label="Capa 1"
     inkscape:groupmode="layer"
     id="capa1"
     transform="translate(0,-540.36218)">
    <path
       d="m 137.62693,565.19786 c 43.71007,5.1e-4 78.05384,25.30075 103.0314,75.9009 9.04322,20.0253 13.78029,35.31311 14.21123,45.86348 l 0.96895,0 c 7.53595,-34.88169 21.20886,-63.84242 41.01877,-86.88227 23.25438,-23.25428 49.41593,-34.8816 78.48474,-34.88211 45.00177,5.1e-4 81.06811,24.11649 108.19913,72.34808 6.88976,17.87208 10.3349,34.66717 10.33544,50.38526 -5.4e-4,53.83073 -22.39397,105.18487 -67.18035,154.06263 l -170.85773,177.53267 -1.93789,0 L 72.384469,824.5528 C 36.210356,780.41211 18.123356,734.87164 18.123411,687.9312 c -5.5e-5,-45.43247 21.424423,-81.49879 64.273518,-108.19914 18.086871,-9.68899 36.496861,-14.53369 55.230001,-14.5342"
       style="font-size:144px;font-style:normal;font-weight:normal;line-height:125%;letter-spacing:0px;word-spacing:0px;opacity:0.54000005;fill:#000000;fill-opacity:1;stroke:#000000;stroke-width:4.59352827;stroke-opacity:1;filter:url(#filter4384);font-family:Sans"
       id="path3023-4"
       inkscape:connector-curvature="0"
       sodipodi:nodetypes="ccccccccccccscc"
       transform="matrix(0.89830829,0,0,0.89830829,26.033077,104.57667)" />
    <g
       transform="matrix(4.1264046,0,0,4.1264046,266.40407,-36.284344)"
       style="font-size:40px;font-style:normal;font-weight:normal;line-height:125%;letter-spacing:0px;word-spacing:0px;fill:#eca5ad;fill-opacity:1;stroke:none;font-family:Sans"
       id="text3015-5">
      <path
         d="m -28.290871,152.74002 c 9.515577,1.1e-4 16.992132,5.50791 22.4296878,16.52344 1.9686868,4.35946 2.9999358,7.68758 3.09375,9.98437 l 0.2109375,0 c 1.64055885,-7.59366 4.6171184,-13.89834 8.9296875,-18.91406 5.0624212,-5.0624 10.7577282,-7.59364 17.0859372,-7.59375 9.796775,1.1e-4 17.64833,5.2501 23.554688,15.75 1.499884,3.89071 2.249883,7.54696 2.25,10.96875 -1.17e-4,11.71882 -4.875112,22.89849 -14.625,33.53906 l -37.1953127,38.64844 -0.421875,0 -39.5156253,-42.44531 c -7.875016,-9.60932 -11.812512,-19.52337 -11.8125,-29.74219 -1.2e-5,-9.89054 4.664045,-17.74209 13.992188,-23.55469 3.937469,-2.10927 7.945278,-3.16395 12.023437,-3.16406"
         style="font-size:144px;fill:#eca5ad;fill-opacity:1;stroke:none"
         id="path3023-2"
         inkscape:connector-curvature="0"
         sodipodi:nodetypes="ccccccccccccscc" />
    </g>
    <g
       transform="matrix(4.1264046,0,0,4.1264046,266.40407,-28.748245)"
       style="font-size:40px;font-style:normal;font-weight:normal;line-height:125%;letter-spacing:0px;word-spacing:0px;fill:url(#radialGradient3799);fill-opacity:1;stroke:none;font-family:Sans"
       id="text3015">
      <path
         d="m -28.290871,152.74002 c 9.515577,1.1e-4 16.992132,5.50791 22.4296878,16.52344 1.9686868,4.35946 2.9999358,7.68758 3.09375,9.98437 l 0.2109375,0 c 1.64055885,-7.59366 4.6171184,-13.89834 8.9296875,-18.91406 5.0624212,-5.0624 10.7577282,-7.59364 17.0859372,-7.59375 9.796775,1.1e-4 17.64833,5.2501 23.554688,15.75 1.499884,3.89071 2.249883,7.54696 2.25,10.96875 -1.17e-4,11.71882 -4.875112,22.89849 -14.625,33.53906 l -37.1953127,38.64844 -0.421875,0 -39.5156253,-42.44531 c -7.875016,-9.60932 -11.812512,-19.52337 -11.8125,-29.74219 -1.2e-5,-9.89054 4.664045,-17.74209 13.992188,-23.55469 3.937469,-2.10927 7.945278,-3.16395 12.023437,-3.16406"
         style="font-size:144px;fill:url(#radialGradient3801);fill-opacity:1;stroke:none"
         id="path3023"
         inkscape:connector-curvature="0"
         sodipodi:nodetypes="ccccccccccccscc" />
    </g>
  </g>
</svg>
