<svg xmlns="http://www.w3.org/2000/svg" width="376" height="240">
    <style>line, path, circle,rect,polygon {
                          stroke: black;
                          stroke-width: 2;
                          stroke-opacity: 1;
                          fill-opacity: 1;
                          stroke-linecap: round;
                          stroke-linejoin: miter;
                        }

                    text {
                        fill: black;
                        }
                        rect.backdrop{
                            stroke: none;
                            fill: white;
                        }
                        .broken{
                            stroke-dasharray: 8;
                        }
                        .filled{
                            fill: black;
                        }
                        .bg_filled{
                            fill: white;
                        }
                        .nofill{
                            fill: white;
                        }

                        text {
                         font-family: monospace;
                         font-size: 14px;
                        }

                        .end_marked_arrow{
                            marker-end: url(#arrow);
                         }
                        .start_marked_arrow{
                            marker-start: url(#arrow);
                         }

                        .end_marked_diamond{
                            marker-end: url(#diamond);
                         }
                        .start_marked_diamond{
                            marker-start: url(#diamond);
                         }

                        .end_marked_circle{
                            marker-end: url(#circle);
                         }
                        .start_marked_circle{
                            marker-start: url(#circle);
                         }

                        .end_marked_open_circle{
                            marker-end: url(#open_circle);
                         }
                        .start_marked_open_circle{
                            marker-start: url(#open_circle);
                         }

                        .end_marked_big_open_circle{
                            marker-end: url(#big_open_circle);
                         }
                        .start_marked_big_open_circle{
                            marker-start: url(#big_open_circle);
                         }

                         
                        </style>
    <defs>
        <marker id="arrow" viewBox="-2 -2 8 8" refX="4" refY="2" markerWidth="7" markerHeight="7" orient="auto-start-reverse">
            <polygon points="0,0 0,4 4,2 0,0"></polygon>
        </marker>
        <marker id="diamond" viewBox="-2 -2 8 8" refX="4" refY="2" markerWidth="7" markerHeight="7" orient="auto-start-reverse">
            <polygon points="0,2 2,0 4,2 2,4 0,2"></polygon>
        </marker>
        <marker id="circle" viewBox="0 0 8 8" refX="4" refY="4" markerWidth="7" markerHeight="7" orient="auto-start-reverse">
            <circle cx="4" cy="4" r="2" class="filled"></circle>
        </marker>
        <marker id="open_circle" viewBox="0 0 8 8" refX="4" refY="4" markerWidth="7" markerHeight="7" orient="auto-start-reverse">
            <circle cx="4" cy="4" r="2" class="bg_filled"></circle>
        </marker>
        <marker id="big_open_circle" viewBox="0 0 8 8" refX="4" refY="4" markerWidth="7" markerHeight="7" orient="auto-start-reverse">
            <circle cx="4" cy="4" r="3" class="bg_filled"></circle>
        </marker>
    </defs>
    <rect class="backdrop" x="0" y="0" width="376" height="240"></rect>
    <text x="2" y="28" class="">Svgbob</text>
    <text x="58" y="28" class="">is</text>
    <text x="82" y="28" class="">a</text>
    <text x="98" y="28" class="">diagramming</text>
    <text x="194" y="28" class="">model</text>
    <text x="2" y="44" class="">which</text>
    <text x="50" y="44" class="">uses</text>
    <text x="90" y="44" class="">a</text>
    <text x="106" y="44" class="">set</text>
    <text x="138" y="44" class="">of</text>
    <text x="162" y="44" class="">typing</text>
    <text x="218" y="44" class="">characters</text>
    <text x="2" y="60" class="">to</text>
    <text x="26" y="60" class="">approximate</text>
    <text x="122" y="60" class="">the</text>
    <text x="154" y="60" class="">intended</text>
    <text x="226" y="60" class="">shape.</text>
    <line x1="76" y1="120" x2="96" y2="120" class="solid end_marked_arrow"></line>
    <text x="2" y="204" class="">It</text>
    <text x="26" y="204" class="">uses</text>
    <text x="66" y="204" class="">a</text>
    <text x="2" y="220" class="">which</text>
    <text x="50" y="220" class="">are</text>
    <text x="82" y="204" class="">combination</text>
    <text x="178" y="204" class="">of</text>
    <text x="202" y="204" class="">characters</text>
    <text x="82" y="220" class="">readily</text>
    <text x="146" y="220" class="">available</text>
    <text x="226" y="220" class="">on</text>
    <text x="250" y="220" class="">your</text>
    <text x="290" y="220" class="">keyboards.</text>
    <g>
        <path d="M 64,88 A 8,8 0,0,0 58,92" class="nofill"></path>
        <line x1="58" y1="92" x2="40" y2="128" class="solid"></line>
        <line x1="64" y1="88" x2="88" y2="88" class="solid"></line>
        <path d="M 88,88 A 3,3 0,0,1 90,92" class="nofill"></path>
        <line x1="90" y1="92" x2="72" y2="128" class="solid"></line>
        <line x1="52" y1="104" x2="104" y2="104" class="solid"></line>
        <line x1="40" y1="128" x2="36" y2="136" class="solid"></line>
        <circle cx="36" cy="136" r="4" class="filled"></circle>
        <circle cx="68" cy="104" r="2" class="nofill"></circle>
        <line x1="68" y1="104" x2="56" y2="128" class="solid"></line>
        <line x1="56" y1="128" x2="72" y2="160" class="solid"></line>
        <line x1="72" y1="128" x2="64" y2="144" class="solid"></line>
        <line x1="72" y1="160" x2="60" y2="184" class="solid"></line>
        <path d="M 32,120 A 8,8 0,0,0 26,124" class="nofill"></path>
        <line x1="26" y1="124" x2="24" y2="128" class="solid"></line>
        <line x1="32" y1="120" x2="44" y2="120" class="solid"></line>
        <path d="M 24,128 A 16,16 0,0,0 24,144" class="nofill"></path>
        <line x1="24" y1="144" x2="26" y2="148" class="solid"></line>
        <path d="M 26,148 A 8,8 0,0,0 32,152" class="nofill"></path>
        <line x1="32" y1="152" x2="40" y2="152" class="solid"></line>
        <path d="M 40,152 A 8,8 0,0,1 46,156" class="nofill"></path>
        <line x1="46" y1="156" x2="56" y2="176" class="solid"></line>
        <line x1="56" y1="176" x2="60" y2="184" class="solid"></line>
    </g>
</svg>